# xmcd
#
# Track frame offsets: 
#        150
#        8733
#        25030
#        39121
#        50741
#        63103
#        74788
#        92010
#        105253
#        124388
#        138331
#        160384
#        174157
#        192290
#
# Disc length: 2930 seconds
#
# Revision: 0
# Processed by: cddbd v1.5.2PL0 Copyright (c) Steve Scherf et al.
# Submitted via: ExactAudioCopy v1.1
#
DISCID=b30b700e
DTITLE=Various Artist - Motortown Revue In Paris[CD1]
DYEAR=1965
DGENRE=Soul
TTITLE0=Mc Harold Kay - Introduction
TTITLE1=Earl Van Dyke And The Soul Brothers - All For You
TTITLE2=Earl Van Dyke And The Soul Brothers - See See Rider
TTITLE3=Earl Van Dyke And The Soul Brothers - Too Many Fish In The Sea
TTITLE4=Martha And The Vandellas - Heat Wave
TTITLE5=Martha And The Vandellas - Wild One
TTITLE6=Martha And The Vandellas - If I Had A Hammer
TTITLE7=Martha And The Vandellas - Nowhere To Run
TTITLE8=Martha And The Vandellas - Dancing In The Street
TTITLE9=Stevie Wonder - Jazz-Blues Instrumental
TTITLE10=Stevie Wonder -  Make Someone Happy
TTITLE11=Stevie Wonder - High Heel Sneakers
TTITLE12=Stevie Wonder With Clarence Paul -  Funny (How Time Slips Awa
TTITLE12=y)
TTITLE13=Stevie Wonder - Fingertips
EXTD=
EXTT0=
EXTT1=
EXTT2=
EXTT3=
EXTT4=
EXTT5=
EXTT6=
EXTT7=
EXTT8=
EXTT9=
EXTT10=
EXTT11=
EXTT12=
EXTT13=
PLAYORDER=
